<svg xmlns="http://www.w3.org/2000/svg" viewBox="0 0 1142 320" fill="none" preserveAspectRatio="none">
    <path d="M0 32L19.0833 53.3C38.1667 75 76.3333 117 114.5 117.3C152.667 117 190.833 75 229 96C267.167 117 305.333 203 343.5 213.3C381.667 224 419.833 160 458 154.7C496.167 149 534.333 203 572.5 192C610.667 181 648.833 107 687 74.7C725.167 43 763.333 53 801.5 80C839.667 107 877.833 149 916 165.3C954.167 181 992.333 171 1030.5 144C1068.67 117 1106.83 75 1125.92 53.3L1145 32V320H1125.92C1106.83 320 1068.67 320 1030.5 320C992.333 320 954.167 320 916 320C877.833 320 839.667 320 801.5 320C763.333 320 725.167 320 687 320C648.833 320 610.667 320 572.5 320C534.333 320 496.167 320 458 320C419.833 320 381.667 320 343.5 320C305.333 320 267.167 320 229 320C190.833 320 152.667 320 114.5 320C76.3333 320 38.1667 320 19.0833 320H0V32Z" fill="#2E346B"/>
</svg>
