<svg width="384" height="345" viewBox="0 0 384 345" fill="none" xmlns="http://www.w3.org/2000/svg">
<g clip-path="url(#clip0)">
<path d="M200.767 344.926C270.533 344.926 327.089 336.329 327.089 325.725C327.089 315.12 270.533 306.524 200.767 306.524C131.002 306.524 74.4461 315.12 74.4461 325.725C74.4461 336.329 131.002 344.926 200.767 344.926Z" fill="#F2F2F2"/>
<path d="M280.134 257.755C281.486 258.247 282.934 258.418 284.363 258.254C285.793 258.091 287.165 257.597 288.371 256.813C289.577 256.028 290.585 254.974 291.315 253.734C292.044 252.494 292.476 251.1 292.576 249.665C292.675 248.229 292.44 246.789 291.889 245.46C291.338 244.13 290.485 242.947 289.399 242.004C288.313 241.06 287.022 240.382 285.629 240.022C284.236 239.662 282.778 239.631 281.371 239.932L281.604 244.715L279.341 240.616C277.121 241.659 275.406 243.542 274.573 245.85C274.277 246.659 274.097 247.505 274.038 248.364C273.895 250.38 274.413 252.387 275.513 254.081C276.613 255.776 278.235 257.066 280.134 257.755V257.755Z" fill="#57B894"/>
<path d="M291.328 313.235C290.529 309.166 293.989 305.56 297.407 303.216C300.826 300.872 304.819 298.568 305.986 294.59C307.662 288.873 302.669 283.637 298.783 279.121C295.9 275.77 293.424 272.089 291.408 268.155C290.599 266.578 289.856 264.929 289.644 263.169C289.337 260.635 290.151 258.113 290.971 255.696C293.703 247.643 296.623 239.657 299.732 231.739" stroke="#3F3D56" stroke-miterlimit="10"/>
<path d="M280.517 256.524C281.869 257.015 283.317 257.186 284.746 257.023C286.175 256.859 287.547 256.366 288.754 255.581C289.96 254.797 290.968 253.743 291.697 252.503C292.427 251.262 292.859 249.869 292.958 248.433C293.058 246.997 292.823 245.558 292.272 244.228C291.72 242.899 290.868 241.716 289.782 240.772C288.695 239.828 287.405 239.15 286.012 238.791C284.618 238.431 283.161 238.4 281.754 238.7L281.986 243.483L279.724 239.384C277.504 240.428 275.789 242.31 274.955 244.619C274.659 245.427 274.479 246.274 274.421 247.133C274.278 249.148 274.796 251.155 275.896 252.85C276.996 254.544 278.618 255.834 280.517 256.524Z" stroke="#3F3D56" stroke-miterlimit="10"/>
<path d="M290.192 230.087C290.723 228.622 291.613 227.315 292.782 226.285C293.95 225.255 295.359 224.536 296.879 224.194L297.644 228.741L299.062 223.965C301.031 223.995 302.939 224.649 304.512 225.834C306.085 227.019 307.241 228.674 307.813 230.559C308.384 232.444 308.342 234.462 307.693 236.322C307.043 238.182 305.82 239.787 304.199 240.905C302.578 242.024 300.644 242.599 298.675 242.546C296.707 242.493 294.806 241.816 293.247 240.612C291.689 239.408 290.553 237.74 290.004 235.848C289.454 233.956 289.52 231.939 290.192 230.087V230.087Z" fill="#57B894"/>
<path d="M290.702 228.445C291.233 226.98 292.124 225.673 293.292 224.643C294.461 223.613 295.869 222.894 297.389 222.552L298.154 227.099L299.572 222.323C301.541 222.352 303.45 223.007 305.022 224.192C306.595 225.377 307.751 227.032 308.323 228.917C308.895 230.802 308.853 232.82 308.203 234.68C307.554 236.539 306.33 238.145 304.709 239.263C303.088 240.382 301.154 240.956 299.186 240.904C297.217 240.851 295.316 240.174 293.758 238.97C292.199 237.766 291.063 236.098 290.514 234.206C289.965 232.314 290.031 230.297 290.702 228.445H290.702Z" stroke="#3F3D56" stroke-miterlimit="10"/>
<path d="M297.153 279.213C299.297 279.992 301.653 279.953 303.77 279.106C305.888 278.258 307.62 276.66 308.636 274.617C309.653 272.574 309.882 270.228 309.28 268.027C308.678 265.826 307.288 263.923 305.374 262.681L304.284 266.352L303.512 261.751C303.504 261.747 303.496 261.744 303.488 261.742C302.341 261.325 301.123 261.138 299.904 261.192C298.685 261.246 297.488 261.54 296.383 262.056C295.277 262.573 294.284 263.303 293.46 264.204C292.637 265.105 291.999 266.159 291.583 267.307C291.166 268.454 290.98 269.673 291.035 270.892C291.09 272.112 291.384 273.309 291.901 274.415C292.419 275.52 293.149 276.513 294.05 277.337C294.951 278.16 296.005 278.798 297.152 279.213H297.153Z" fill="#57B894"/>
<path d="M297.595 277.55C299.739 278.328 302.095 278.29 304.212 277.442C306.33 276.595 308.062 274.997 309.079 272.954C310.095 270.911 310.324 268.565 309.722 266.364C309.12 264.163 307.73 262.26 305.816 261.018L304.726 264.688L303.954 260.087C303.946 260.084 303.938 260.081 303.93 260.078C302.783 259.661 301.565 259.474 300.346 259.528C299.127 259.582 297.93 259.876 296.824 260.393C295.718 260.909 294.725 261.639 293.902 262.54C293.078 263.441 292.44 264.495 292.023 265.643C291.607 266.791 291.421 268.009 291.476 269.229C291.531 270.449 291.825 271.646 292.343 272.751C292.86 273.857 293.59 274.85 294.491 275.674C295.392 276.497 296.447 277.135 297.595 277.55V277.55Z" stroke="#3F3D56" stroke-miterlimit="10"/>
<path d="M287.481 294.647C287.85 296.746 288.929 298.654 290.537 300.051C292.145 301.449 294.185 302.251 296.314 302.322C298.442 302.394 300.531 301.731 302.23 300.445C303.928 299.159 305.133 297.328 305.642 295.259C306.151 293.19 305.933 291.008 305.025 289.08C304.118 287.153 302.575 285.596 300.656 284.671C298.737 283.746 296.558 283.51 294.485 284.001C292.412 284.492 290.572 285.682 289.271 287.37L293.41 293.602L287.755 290.294C287.316 291.702 287.223 293.195 287.481 294.647Z" fill="#57B894"/>
<path d="M287.864 293.415C288.232 295.514 289.311 297.422 290.919 298.82C292.528 300.217 294.567 301.019 296.696 301.091C298.825 301.163 300.914 300.5 302.612 299.214C304.311 297.928 305.516 296.097 306.025 294.027C306.534 291.958 306.316 289.777 305.408 287.849C304.5 285.921 302.957 284.364 301.038 283.44C299.119 282.515 296.941 282.278 294.868 282.769C292.795 283.261 290.954 284.45 289.654 286.138L293.793 292.37L288.138 289.062C287.699 290.471 287.605 291.963 287.864 293.415Z" stroke="#3F3D56" stroke-miterlimit="10"/>
<path d="M261.908 51.0659C262.258 44.3848 265.157 38.0928 270.008 33.4873C274.859 28.8819 281.291 26.3143 287.979 26.3142C288.772 26.3142 289.556 26.3556 290.331 26.4249C293.381 21.1763 297.754 16.8199 303.013 13.7909C308.272 10.7619 314.234 9.16633 320.302 9.16346C326.371 9.16059 332.334 10.7506 337.596 13.7746C342.858 16.7986 347.235 21.1508 350.29 26.3966C350.944 26.3474 351.603 26.3142 352.269 26.3142C358.957 26.3143 365.389 28.8819 370.24 33.4873C375.091 38.0928 377.99 44.3849 378.34 51.0659" fill="#F2F2F2"/>
<path d="M267.346 49.057C267.695 42.3759 270.594 36.0838 275.445 31.4784C280.296 26.873 286.729 24.3054 293.416 24.3053C294.21 24.3053 294.993 24.3467 295.768 24.416C298.818 19.1674 303.191 14.811 308.45 11.782C313.71 8.75303 319.671 7.15742 325.74 7.15454C331.808 7.15167 337.771 8.74165 343.034 11.7657C348.296 14.7897 352.673 19.1419 355.727 24.3877C356.381 24.3385 357.04 24.3053 357.707 24.3053C364.394 24.3054 370.827 26.873 375.678 31.4784C380.528 36.0839 383.428 42.3759 383.777 49.057" stroke="#3F3D56" stroke-miterlimit="10"/>
<path d="M72.2032 175.203C72.5527 168.522 75.4518 162.23 80.3026 157.625C85.1534 153.019 91.586 150.452 98.2736 150.452C99.067 150.452 99.8505 150.493 100.626 150.562C103.676 145.314 108.048 140.957 113.308 137.928C118.567 134.899 124.529 133.304 130.597 133.301C136.666 133.298 142.629 134.888 147.891 137.912C153.153 140.936 157.53 145.288 160.585 150.534C161.239 150.485 161.897 150.452 162.564 150.452C169.252 150.452 175.684 153.019 180.535 157.625C185.386 162.23 188.285 168.522 188.635 175.203" fill="#F2F2F2"/>
<path d="M77.6406 173.194C77.9901 166.513 80.8892 160.221 85.74 155.616C90.5908 151.01 97.0234 148.443 103.711 148.443C104.504 148.443 105.288 148.484 106.063 148.553C109.113 143.305 113.486 138.948 118.745 135.919C124.004 132.89 129.966 131.295 136.035 131.292C142.103 131.289 148.066 132.879 153.328 135.903C158.591 138.927 162.967 143.279 166.022 148.525C166.676 148.476 167.335 148.443 168.002 148.443C174.689 148.443 181.122 151.01 185.973 155.616C190.823 160.221 193.722 166.513 194.072 173.194" stroke="#3F3D56" stroke-miterlimit="10"/>
<path d="M16.8539 44.3679C17.2034 37.6868 20.1025 31.3948 24.9533 26.7893C29.8041 22.1839 36.2367 19.6163 42.9243 19.6162C43.7177 19.6162 44.5012 19.6576 45.2766 19.7269C48.3263 14.4783 52.6991 10.1219 57.9584 7.09293C63.2176 4.06394 69.1793 2.46833 75.2479 2.46546C81.3164 2.46259 87.2796 4.05256 92.5417 7.07658C97.8038 10.1006 102.181 14.4528 105.235 19.6986C105.89 19.6494 106.548 19.6162 107.215 19.6162C113.902 19.6163 120.335 22.1839 125.186 26.7893C130.037 31.3948 132.936 37.6869 133.285 44.3679" fill="#F2F2F2"/>
<path d="M22.2913 42.3589C22.6408 35.6778 25.54 29.3857 30.3908 24.7803C35.2416 20.1749 41.6741 17.6073 48.3617 17.6072C49.1551 17.6072 49.9386 17.6486 50.714 17.7179C53.7637 12.4693 58.1365 8.1129 63.3958 5.0839C68.6551 2.05491 74.6167 0.459295 80.6853 0.456425C86.7539 0.453554 92.717 2.04353 97.9791 5.06754C103.241 8.09156 107.618 12.4438 110.673 17.6896C111.327 17.6404 111.986 17.6072 112.652 17.6072C119.34 17.6073 125.772 20.1749 130.623 24.7803C135.474 29.3857 138.373 35.6778 138.723 42.3589" stroke="#3F3D56" stroke-miterlimit="10"/>
<path d="M131.701 97.3429C131.701 97.3429 178.623 120.651 187.037 117.414C195.45 114.177 198.363 85.3651 198.363 85.3651L163.737 78.8906L131.701 97.3429Z" fill="#805AD5"/>
<path opacity="0.1" d="M131.701 97.3429C131.701 97.3429 178.623 120.651 187.037 117.414C195.45 114.177 198.363 85.3651 198.363 85.3651L163.737 78.8906L131.701 97.3429Z" fill="black"/>
<path d="M228.943 62.5426H198.201V89.4117H228.943V62.5426Z" fill="#FF6584"/>
<path opacity="0.1" d="M228.943 62.5426H198.201V89.4117H228.943V62.5426Z" fill="black"/>
<path d="M170.209 176.979C170.209 176.979 168.915 205.143 177.652 204.496C186.389 203.848 177.652 177.95 177.652 177.95L170.209 176.979Z" fill="#FBBEBE"/>
<path d="M206.129 66.5892C206.129 66.5892 208.071 78.8907 204.511 80.5094C200.951 82.128 198.686 83.4229 198.686 83.4229L206.776 88.9262L221.662 89.8974L225.545 86.9838L229.105 83.7466C229.105 83.7466 223.28 82.4517 223.28 79.5382C223.28 76.6247 222.956 67.8841 222.956 67.8841L206.129 66.5892Z" fill="#FBBEBE"/>
<path opacity="0.1" d="M206.129 66.5892C206.129 66.5892 208.071 78.8907 204.511 80.5094C200.951 82.128 198.686 83.4229 198.686 83.4229L206.776 88.9262L221.662 89.8974L225.545 86.9838L229.105 83.7466C229.105 83.7466 223.28 82.4517 223.28 79.5382C223.28 76.6247 222.956 67.8841 222.956 67.8841L206.129 66.5892Z" fill="black"/>
<path d="M185.742 181.835C185.742 181.835 176.358 211.941 176.358 233.955C176.358 233.955 160.825 268.917 161.472 286.074L157.589 309.706L163.09 311.648L167.297 308.087C167.297 308.087 168.591 295.462 172.798 289.311C177.005 283.161 186.713 254.025 186.713 254.025C186.713 254.025 212.601 199.64 211.63 191.87C210.659 184.101 185.742 181.835 185.742 181.835Z" fill="#FBBEBE"/>
<path d="M243.019 175.037C243.019 175.037 249.168 177.95 240.431 229.746C240.431 229.746 245.285 264.061 241.078 282.837L240.431 301.613H233.635L232.341 299.671C232.341 299.671 232.017 282.837 229.752 278.305C227.487 273.773 225.545 247.551 225.545 247.551C225.545 247.551 215.19 194.136 217.455 189.604C219.72 185.072 243.019 175.037 243.019 175.037Z" fill="#FBBEBE"/>
<path d="M156.618 304.203C156.618 304.203 158.883 309.382 163.09 308.087C167.297 306.792 168.268 306.792 168.268 306.792C168.268 306.792 165.355 321.684 166.326 328.806C167.297 335.928 165.679 340.46 159.207 340.46C152.735 340.46 151.764 332.69 151.764 332.69L154.677 314.238L156.618 304.203Z" fill="#2F2E41"/>
<path d="M231.046 296.11C231.046 296.11 233.311 300.642 236.871 299.671C240.43 298.699 241.725 297.081 241.725 297.081C241.725 297.081 241.401 307.116 242.696 311.648C243.99 316.181 246.902 329.13 240.107 329.777C238.241 330.004 236.351 329.622 234.719 328.689C233.086 327.756 231.798 326.321 231.046 324.597V296.11L231.046 296.11Z" fill="#2F2E41"/>
<path d="M214.866 75.006C222.73 75.006 229.105 68.6288 229.105 60.7622C229.105 52.8955 222.73 46.5183 214.866 46.5183C207.003 46.5183 200.628 52.8955 200.628 60.7622C200.628 68.6288 207.003 75.006 214.866 75.006Z" fill="#FBBEBE"/>
<path d="M241.078 86.3363C241.078 86.3363 229.799 81.906 225.731 82.5025C223.977 83.993 221.934 85.1032 219.73 85.7631C217.525 86.423 215.208 86.6182 212.925 86.3363C205.158 85.3651 202.121 81.6366 202.121 81.6366C202.121 81.6366 181.212 86.3363 182.506 88.2787C183.801 90.221 189.625 121.946 189.625 121.946C189.625 121.946 193.509 149.463 188.978 158.851C184.448 168.239 182.183 183.777 184.124 185.072C186.066 186.367 207.747 192.194 210.336 193.813C212.925 195.431 213.895 189.928 215.513 190.899C217.131 191.87 220.691 193.489 222.956 192.194C225.221 190.899 247.226 179.245 246.579 176.979C245.932 174.713 237.518 147.196 234.606 141.693C231.693 136.19 233.959 124.536 235.577 122.27C237.195 120.004 240.431 117.414 241.078 110.939C241.725 104.465 241.078 86.3363 241.078 86.3363Z" fill="#2F2E41"/>
<path d="M183.219 87.2782C183.219 87.2782 180.565 89.2499 179.594 93.4583C178.623 97.6667 177.329 131.334 177.329 131.334C177.329 131.334 165.355 177.627 167.944 178.598C170.533 179.569 177.976 181.511 178.947 180.54C179.917 179.569 190.92 140.398 189.949 136.19C188.978 131.981 191.243 119.68 191.243 119.68L183.219 87.2782Z" fill="#2F2E41"/>
<path d="M243.019 147.52C243.019 147.52 225.545 138.78 223.603 144.607C221.662 150.434 242.049 156.584 242.049 156.584C242.049 156.584 249.168 153.995 249.168 152.376C249.168 150.757 243.019 147.52 243.019 147.52Z" fill="#FBBEBE"/>
<path d="M237.518 87.6312L241.078 86.3363C241.078 86.3363 243.019 85.0414 245.285 89.8973C247.55 94.7532 272.143 123.241 267.613 132.305C263.082 141.369 248.197 159.822 247.55 158.527C246.903 157.232 239.46 147.52 240.754 146.549C242.049 145.578 256.934 132.305 254.992 130.363C253.051 128.42 244.961 111.911 240.431 111.263C235.9 110.616 237.518 87.6312 237.518 87.6312Z" fill="#2F2E41"/>
<path d="M199.172 60.2765C199.172 60.2765 149.827 40.428 107.111 21.3283C107.111 21.3283 84.783 15.825 73.1335 26.1841C73.1335 26.1841 82.8415 24.8892 82.8415 30.3925C82.8415 30.3925 91.255 41.3992 65.0435 43.3415C46.789 44.6942 39.521 55.6246 36.7906 62.1362C34.6589 67.3632 30.9116 71.771 26.0967 74.7152C19.7875 78.4874 10.6435 81.2626 0 76.3614C0 76.3614 0.605084 77.2919 1.75285 78.8425C22.3027 106.605 98.8288 130.766 125.852 109.26C142.553 95.9687 169.028 79.1699 188.007 87.6312C217.779 100.904 223.28 95.0769 223.28 95.0769L224.574 91.5159C224.574 91.5159 195.774 83.7465 195.127 73.7111C194.479 63.6756 199.172 60.2765 199.172 60.2765Z" fill="#805AD5"/>
<path d="M227.972 62.8663C227.972 62.8663 234.929 65.618 236.224 74.6823C236.224 74.6823 243.667 89.2499 235.253 92.8108C226.839 96.3718 225.221 95.4006 225.221 95.4006V93.782C225.221 93.782 234.282 88.2787 232.341 84.0703C230.399 79.8618 227.972 62.8663 227.972 62.8663Z" fill="#805AD5"/>
<path d="M215.513 104.141C215.513 104.141 217.779 98.3141 217.131 98.3141C216.484 98.3141 219.764 94.7302 221.037 96.0366C222.309 97.3429 224.574 101.228 221.985 102.199C219.397 103.17 215.513 104.141 215.513 104.141Z" fill="#805AD5"/>
<path d="M231.461 100.683C231.461 100.683 225.546 98.6648 225.574 99.3116C225.601 99.9585 221.883 96.8317 223.134 95.5047C224.385 94.1777 228.169 91.7495 229.248 94.2959C230.327 96.8424 231.461 100.683 231.461 100.683Z" fill="#805AD5"/>
<path d="M221.985 91.8397C221.985 91.8397 224.94 90.1807 226.699 92.7907C228.457 95.4006 224.574 99.9328 221.985 99.9328C219.397 99.9328 219.397 94.4294 219.397 94.4294L221.985 91.8397Z" fill="#805AD5"/>
<path opacity="0.1" d="M221.985 91.8397C221.985 91.8397 224.94 90.1807 226.699 92.7907C228.457 95.4006 224.574 99.9328 221.985 99.9328C219.397 99.9328 219.397 94.4294 219.397 94.4294L221.985 91.8397Z" fill="black"/>
<path d="M202.521 37.518C200.815 38.925 199.197 40.5018 198.136 42.4425C197.58 43.531 197.115 44.6637 196.746 45.8292C195.437 49.5967 192.184 53.4124 193.561 57.1555C193.954 58.2236 194.566 59.3498 194.214 60.432C193.901 61.393 192.936 61.9539 192.238 62.6844C190.739 64.2524 190.487 66.6051 190.396 68.7725C190.228 72.7418 192.41 77.4194 195.046 80.3908C195.618 80.9497 196.149 81.5503 196.632 82.1875C196.959 82.6956 197.172 83.2679 197.258 83.8657C197.343 84.4635 197.3 85.0727 197.129 85.6521L200.97 84.8503C201.108 86.2686 201.152 87.6946 201.099 89.1187C202.01 89.2188 202.927 89.0019 203.696 88.5045C204.466 88.0071 205.04 87.2596 205.323 86.3879C205.54 87.4035 205.895 88.3846 206.378 89.3041C207.505 87.8946 208.369 86.294 208.929 84.5786C209.664 82.3814 209.821 80.0321 209.387 77.7564C208.98 76.0942 208.427 74.4715 207.733 72.9072C206.376 69.4766 205.268 65.9536 204.161 62.4343C203.587 60.6064 203.005 58.7191 203.179 56.8109L204.544 56.6624C204.559 55.9087 204.704 55.1633 204.974 54.4593C205.774 54.6286 206.543 54.9183 207.256 55.3185L208.829 51.3255C209.868 52.4026 211.357 52.8902 212.784 53.3396L218.207 55.0476L218.24 53.974C220.529 56.001 223.136 57.637 225.956 58.8161C225.797 58.6237 225.681 58.3995 225.615 58.1586C225.549 57.9176 225.536 57.6654 225.575 57.4188C226.911 59.8136 226.377 62.7971 225.552 65.4127C224.728 68.0284 223.633 70.6913 223.966 73.4138C224.214 75.4499 225.257 77.3973 225.063 79.4394C224.968 80.4451 224.575 81.402 224.453 82.4047C224.161 84.7962 225.418 87.0735 226.631 89.1546L228.99 85.9133C229.854 84.7271 230.744 83.515 231.966 82.7042C233.221 81.8719 234.777 81.4982 235.871 80.4629C237.823 78.6146 237.575 75.4658 236.94 72.8529C236.603 71.464 236.194 70.0553 236.318 68.6312C236.529 66.2172 238.206 64.2198 239.15 61.9884C239.823 60.3613 240.115 58.6017 240.003 56.8444C239.891 55.0871 239.378 53.3788 238.504 51.8504C237.332 49.8396 235.561 48.2202 234.457 46.1715C233.358 44.1321 232.938 41.7055 231.432 39.9454C230.697 39.1444 229.841 38.4626 228.896 37.9244C224.615 35.3513 219.807 33.782 214.833 33.3345C210.116 32.8411 206.136 34.5371 202.521 37.518Z" fill="#FF6584"/>
</g>
<path d="M227.41 4.65113L229.224 16.7456L239.448 12.6768L234.922 21.4065H247.982C245.721 22.8 235.841 29.1804 234.922 34.8483L206.189 25.0791C206.522 22.9692 207.767 12.8354 203 3L212.414 14.2513L213.109 3.23838L219.246 14.2513L227.41 4.65113Z" fill="#805AD5"/>
<defs>
<clipPath id="clip0">
<rect width="384" height="344.693" fill="white" transform="translate(0 0.233154)"/>
</clipPath>
</defs>
</svg>
