<svg viewBox="0 0 24 24" fill="none" xmlns="http://www.w3.org/2000/svg">
<path d="M19.6114 2.57143H15.8571C15.5161 2.57143 15.1891 2.43597 14.948 2.19485C14.7069 1.95373 14.5714 1.62671 14.5714 1.28571C14.5714 0.944722 14.7069 0.617695 14.948 0.376577C15.1891 0.135459 15.5161 0 15.8571 0L22.7143 0C23.0553 0 23.3823 0.135459 23.6234 0.376577C23.8645 0.617695 24 0.944722 24 1.28571V8.14286C24 8.48385 23.8645 8.81088 23.6234 9.05199C23.3823 9.29311 23.0553 9.42857 22.7143 9.42857C22.3733 9.42857 22.0463 9.29311 21.8051 9.05199C21.564 8.81088 21.4286 8.48385 21.4286 8.14286V4.39029L15.48 10.3389C15.2363 10.566 14.9139 10.6896 14.5808 10.6837C14.2477 10.6779 13.9299 10.5429 13.6944 10.3074C13.4588 10.0718 13.3239 9.75398 13.318 9.4209C13.3121 9.08781 13.4357 8.76544 13.6629 8.52171L19.6114 2.57143Z" fill="black"/>
<path d="M1.28571 14.5714C1.62671 14.5714 1.95373 14.7069 2.19485 14.948C2.43597 15.1891 2.57143 15.5162 2.57143 15.8571V19.6114L8.52 13.6646C8.76373 13.4375 9.08609 13.3138 9.41918 13.3197C9.75227 13.3256 10.0701 13.4605 10.3056 13.6961C10.5412 13.9316 10.6761 14.2494 10.682 14.5825C10.6879 14.9156 10.5643 15.238 10.3371 15.4817L4.39029 21.4286H8.14286C8.48385 21.4286 8.81088 21.564 9.05199 21.8052C9.29311 22.0463 9.42857 22.3733 9.42857 22.7143C9.42857 23.0553 9.29311 23.3823 9.05199 23.6234C8.81088 23.8645 8.48385 24 8.14286 24H1.28571C0.944722 24 0.617695 23.8645 0.376577 23.6234C0.135459 23.3823 0 23.0553 0 22.7143L0 15.8571C0 15.5162 0.135459 15.1891 0.376577 14.948C0.617695 14.7069 0.944722 14.5714 1.28571 14.5714V14.5714Z" fill="black"/>
</svg>
