<svg
width="24"
height="24"
viewBox="0 0 24 24"
version="1.1"
xmlns="http://www.w3.org/2000/svg"
>
  <path
    d="M23,11.5 L23,11.5 L23,11.5 C23,12.3284271 22.3284271,13 21.5,13 L1.5,13 L1.5,13 C0.671572875,13 1.01453063e-16,12.3284271 0,11.5 L0,11.5 L0,11.5 C-1.01453063e-16,10.6715729 0.671572875,10 1.5,10 L21.5,10 L21.5,10 C22.3284271,10 23,10.6715729 23,11.5 Z"
  />
  <path
    d="M11.5,23 C10.6715729,23 10,22.3284271 10,21.5 L10,1.5 C10,0.671572875 10.6715729,1.52179594e-16 11.5,0 C12.3284271,-1.52179594e-16 13,0.671572875 13,1.5 L13,21.5 C13,22.3284271 12.3284271,23 11.5,23 Z"
  />
</svg>
