    <svg
      width="91"
      height="51"
      viewBox="0 0 91 51"
      version="1.1"
      xmlns="http://www.w3.org/2000/svg"
    >
      <path
        fill="black"
        d="M30.2563657,48.6143861 C30.2183019,47.790406 29.8626205,47.0158388 29.2674654,46.4614308 L10.8027839,29.0634209 L87.7179501,29.0634209 C87.8228144,29.068595 87.9281828,29.068595 88.0330471,29.0634209 C89.6171025,28.9790826 90.9828587,27.4229632 90.9004294,25.7972517 C90.818,24.1715403 89.3017535,22.7693512 87.7179501,22.8544657 L10.8027839,22.8544657 L29.2674654,5.48879403 C30.5505402,4.39032637 30.7227091,2.43243582 29.6523878,1.11587861 C28.5820665,-0.200678607 26.6743435,-0.377892537 25.3915208,0.720575124 C25.3146371,0.786286567 25.2410305,0.855878607 25.171205,0.929092537 L0.971759003,23.6952617 C-0.255102493,24.8594408 -0.330221607,26.8235403 0.803875346,28.0826647 C0.857567867,28.1424259 0.913781163,28.1998587 0.971759003,28.2549632 L25.171205,51.0211323 C25.7656039,51.5954607 26.5614127,51.8986647 27.3768837,51.8619284 C29.0458892,51.7812119 30.3347618,50.3270229 30.2563657,48.6143861 Z"
      />
    </svg>
