    <svg
      width="24"
      height="24"
      viewBox="0 0 24 24"
      version="1.1"
      xmlns="http://www.w3.org/2000/svg"
    >
      <path
        className="path"
        fill="black"
        d="M14.396342,5.02634944 C13.7681487,4.39744238 12.7495316,4.39744238 12.1214275,5.02634944 L11.5527435,5.59565799 L3.59054275,13.5662454 L3.5925948,13.5682974 L3.34171004,13.8198959 C3.34171004,13.8198959 2.54159108,14.6257249 0.735078067,20.4577249 C0.722408922,20.4984981 0.709828996,20.5390037 0.697070632,20.5803123 C0.664862454,20.6847881 0.632297398,20.7909591 0.599464684,20.8985576 C0.570379182,20.9936654 0.540936803,21.0907361 0.511405204,21.1884312 C0.486513011,21.2707807 0.461799257,21.3522379 0.436550186,21.4363717 C0.379271375,21.6273011 0.32127881,21.8216208 0.262126394,22.0222751 C0.132312268,22.4627509 -0.184773234,23.4560297 0.173799257,23.8155836 C0.519078067,24.1619331 1.52279554,23.8572491 1.9620223,23.7269888 C2.16115985,23.6679257 2.35414126,23.6100223 2.54364312,23.5528327 C2.63116729,23.5264238 2.71601487,23.5005502 2.80157621,23.4744981 C2.89356134,23.4464833 2.98510037,23.4186468 3.0747658,23.3910781 C3.18798513,23.3562825 3.29959851,23.3219331 3.40933829,23.2878513 C3.44208178,23.2776803 3.47420074,23.2675985 3.50667658,23.2575167 C9.0554052,21.5297844 10.051539,20.7189591 10.1343346,20.6448178 C10.1349591,20.6443717 10.1349591,20.6443717 10.1354052,20.6439257 C10.1388848,20.6407138 10.1412937,20.6385725 10.1412937,20.6385725 L10.3981561,20.3810855 L10.4153755,20.3983048 L18.3777546,12.4277175 L18.3776654,12.4276283 L18.9463494,11.8583197 C19.5745428,11.2295019 19.5745428,10.2099033 18.9463494,9.58099628 L14.396342,5.02634944 Z M9.22518959,19.608803 C9.21823048,19.6135316 9.20877323,19.6196877 9.19878067,19.6260223 C9.19324907,19.6295911 9.18655762,19.6337844 9.17995539,19.6378885 C9.17326394,19.6420818 9.16594796,19.646632 9.15818587,19.6513606 C9.15131599,19.6555539 9.14417844,19.6598364 9.13650558,19.6644758 C8.87161338,19.8230186 8.09424535,20.2320892 6.20761338,20.9150632 C5.98715242,20.9948253 5.7470632,21.0794052 5.4955539,21.1665725 L2.81362082,18.4818736 C2.90105576,18.2284907 2.98572491,17.9866171 3.06575465,17.764461 C3.7472119,15.8698885 4.15592565,15.0902007 4.31357621,14.8256654 C4.31741264,14.8193309 4.32089219,14.8135316 4.32437175,14.8078216 C4.32990335,14.7987212 4.33507807,14.7902454 4.33989591,14.7824833 C4.34373234,14.7763271 4.34774721,14.7699033 4.35113755,14.7646394 C4.35747212,14.7547361 4.36362825,14.7452788 4.36835688,14.7382305 L4.56463941,14.5414126 L9.42575465,19.4076134 L9.22518959,19.608803 Z M23.496,5.02634944 L18.9460818,0.471702602 C18.3178885,-0.157115242 17.2994498,-0.157115242 16.6711673,0.471702602 L15.5337993,1.61040892 C14.9056059,2.23922677 14.9056059,3.25882528 15.5337993,3.88764312 L20.0836283,8.44228996 C20.7117323,9.07110781 21.7303494,9.07110781 22.3585428,8.44228996 L23.496,7.30367286 C24.1241933,6.6747658 24.1241933,5.65516729 23.496,5.02634944 Z"
      />
    </svg>
