<svg id="Bold" xmlns="http://www.w3.org/2000/svg" viewBox="0 0 24 24"><title>arrow-button-up-1</title><path d="M12,10.416a2.643,2.643,0,0,1,1.875.775l9.541,9.541a1.768,1.768,0,0,1-2.5,2.5l-8.739-8.739a.25.25,0,0,0-.354,0L3.084,23.232a1.768,1.768,0,0,1-2.5-2.5l9.541-9.541A2.643,2.643,0,0,1,12,10.416Z"/><path d="M12,.25a2.643,2.643,0,0,1,1.875.775l9.541,9.541a1.768,1.768,0,0,1-2.5,2.5L12.177,4.327a.25.25,0,0,0-.354,0L3.084,13.066a1.768,1.768,0,0,1-2.5-2.5l9.541-9.541A2.643,2.643,0,0,1,12,.25Z"/></svg>