<svg viewBox="0 0 24 24" xmlns="http://www.w3.org/2000/svg"><g transform="matrix(1.7142857142857142,0,0,1.7142857142857142,0,0)"><path d="M13.978,10.183,13.5,8.26a.751.751,0,0,0-.91-.545l-1.922.48a.75.75,0,0,0-.2,1.371l.615.369A5.564,5.564,0,0,1,7,12.019,5.047,5.047,0,0,1,2.284,8.713a.75.75,0,0,0-1.409.516A6.552,6.552,0,0,0,7,13.519a7.063,7.063,0,0,0,5.375-2.8l.489.293a.75.75,0,0,0,1.114-.825Z" fill="#000000" stroke="none" stroke-linecap="round" stroke-linejoin="round"></path><path d="M1.413,6.285l1.922-.48A.75.75,0,0,0,3.54,4.434l-.567-.34A5.593,5.593,0,0,1,7,1.981a5.047,5.047,0,0,1,4.716,3.306.75.75,0,0,0,1.409-.516A6.552,6.552,0,0,0,7,.481,7.141,7.141,0,0,0,1.672,3.314l-.536-.322a.75.75,0,0,0-1.114.825L.5,5.74a.751.751,0,0,0,.727.568A.765.765,0,0,0,1.413,6.285Z" fill="#000000" stroke="none" stroke-linecap="round" stroke-linejoin="round"></path></g></svg>
