<?xml version="1.0" encoding="UTF-8"?>
<svg xmlns="http://www.w3.org/2000/svg"  viewBox="0 0 26 26" >
<g>
<path d="M 5 0 C 2.2545455 0 0 2.2545455 0 5 L 0 17 C 0 19.745455 2.2545455 22 5 22 L 17 22 C 19.745455 22 22 19.745455 22 17 L 22 5 C 22 2.2545455 19.745455 0 17 0 L 5 0 z M 5 2 L 17 2 C 18.654545 2 20 3.3454545 20 5 L 20 17 C 20 18.654545 18.654545 20 17 20 L 5 20 C 3.3454545 20 2 18.654545 2 17 L 2 5 C 2 3.3454545 3.3454545 2 5 2 z M 24 5.0253906 L 24 21 C 24 22.654 22.654 24 21 24 L 5.0253906 24 C 5.9383906 25.207 7.373 26 9 26 L 21 26 C 23.757 26 26 23.757 26 21 L 26 9 C 26 7.373 25.207 5.9383906 24 5.0253906 z M 15.173828 6.0058594 C 15.047953 6.0288594 14.932016 6.1013437 14.853516 6.2148438 L 10.072266 13.306641 L 7.9121094 11.146484 C 7.7171094 10.951484 7.4000781 10.951484 7.2050781 11.146484 L 6.1464844 12.207031 C 5.9514844 12.402031 5.9514844 12.719062 6.1464844 12.914062 L 9.3652344 16.134766 C 9.6012344 16.369766 9.92 16.5 10.25 16.5 C 10.287 16.5 10.324328 16.498141 10.361328 16.494141 C 10.730328 16.460141 11.067344 16.265937 11.277344 15.960938 L 16.910156 7.6347656 C 17.067156 7.4077656 17.010203 7.0964531 16.783203 6.9394531 L 15.548828 6.0878906 C 15.434828 6.0093906 15.299703 5.9828594 15.173828 6.0058594 z"/>
</g>
</svg>
