<?xml version="1.0" encoding="utf-8"?>
<!-- Generator: Adobe Illustrator 24.1.0, SVG Export Plug-In . SVG Version: 6.00 Build 0)  -->
<svg version="1.1" id="Layer_1" xmlns="http://www.w3.org/2000/svg" xmlns:xlink="http://www.w3.org/1999/xlink" x="0px" y="0px"
	 viewBox="0 0 17 56.7" style="enable-background:new 0 0 17 56.7;" xml:space="preserve">
<path d="M1.9,2.2L1.9,2.2c1.3,0.2,2.4,0.7,3.4,1.5c0.8,0.8,1.5,1.8,2,2.9c0.9,2.3,3.1,8.4,3.1,21.8S8.2,47.8,7.3,50.1
	c-0.5,1.1-1.2,2.1-2,2.9c-1,0.8-2.1,1.3-3.3,1.5H1.9c-0.4,0.1-0.6,0.4-0.6,0.8c0.1,0.3,0.3,0.6,0.6,0.6c1.6,0.2,3.2-0.1,4.7-0.8
	c1.4-0.8,2.7-1.9,3.6-3.2c1.7-2.6,2.9-5.4,3.6-8.4l0.1-0.3c2.5-9.7,2.5-19.8,0-29.5l-0.1-0.3c-0.7-3-1.9-5.8-3.6-8.4
	C9.3,3.5,8,2.4,6.6,1.6C5.1,0.9,3.5,0.7,1.9,0.9c-0.4,0-0.7,0.4-0.6,0.7C1.3,1.9,1.5,2.2,1.9,2.2L1.9,2.2z"/>
</svg>
