    <svg
      width="91"
      height="51"
      viewBox="0 0 91 51"
      version="1.1"
      xmlns="http://www.w3.org/2000/svg"
    >
      <path
        fill="black"
        d="M63.0035243,0.00287814875 C61.7906378,0.0600658892 60.7317989,0.842666173 60.3212412,1.985385 C59.9106836,3.12810382 60.2293609,4.40562012 61.1285243,5.22162815 L79.4410243,22.0341281 L3.15977426,22.0341281 C3.05570186,22.0291281 2.95134666,22.0291281 2.84727426,22.0341281 C1.27629006,22.1156281 -0.078297035,23.6193781 0.00352426499,25.1903781 C0.085345265,26.7612781 1.58881846,28.1162281 3.15977426,28.0341281 L79.4410243,28.0341281 L61.1285243,44.8153781 C60.2782139,45.5247824 59.8877978,46.6448836 60.1129217,47.7291351 C60.3380455,48.8133866 61.142102,49.6854787 62.204541,49.9977376 C63.2669799,50.3099965 64.4150384,50.0116459 65.1910243,49.2216281 L89.1910243,27.2216281 C89.8053452,26.6537206 90.1546504,25.8551089 90.1546504,25.0185031 C90.1546504,24.1818974 89.8053452,23.3832857 89.1910243,22.8153781 L65.1910243,0.815378149 C64.6013672,0.2604644 63.812455,-0.0325601255 63.0035243,0.00287814875 Z"
      />
    </svg>
