<svg viewBox="0 0 24 24" fill="none" xmlns="http://www.w3.org/2000/svg">
<path d="M14.1429 1.71429C14.4839 1.71429 14.8109 1.84975 15.052 2.09087C15.2931 2.33198 15.4286 2.65901 15.4286 3V6.75257L21.8057 0.377146C22.0494 0.150037 22.3718 0.0263973 22.7049 0.0322743C23.038 0.0381512 23.3558 0.173086 23.5913 0.408651C23.8269 0.644216 23.9619 0.962019 23.9677 1.29511C23.9736 1.62819 23.85 1.95056 23.6229 2.19429L17.2474 8.57143H21C21.341 8.57143 21.668 8.70689 21.9091 8.94801C22.1503 9.18913 22.2857 9.51615 22.2857 9.85714C22.2857 10.1981 22.1503 10.5252 21.9091 10.7663C21.668 11.0074 21.341 11.1429 21 11.1429H14.1429C13.8019 11.1429 13.4748 11.0074 13.2337 10.7663C12.9926 10.5252 12.8571 10.1981 12.8571 9.85714V3C12.8571 2.65901 12.9926 2.33198 13.2337 2.09087C13.4748 1.84975 13.8019 1.71429 14.1429 1.71429V1.71429Z" fill="black"/>
<path d="M9.85714 22.2857C9.51615 22.2857 9.18913 22.1503 8.94801 21.9091C8.70689 21.668 8.57143 21.341 8.57143 21V17.2474L2.19429 23.6229C1.95056 23.85 1.62819 23.9736 1.29511 23.9677C0.962019 23.9619 0.644216 23.8269 0.408651 23.5914C0.173086 23.3558 0.0381512 23.038 0.0322743 22.7049C0.0263973 22.3718 0.150037 22.0494 0.377146 21.8057L6.75257 15.4286H3C2.65901 15.4286 2.33198 15.2931 2.09087 15.052C1.84975 14.8109 1.71429 14.4839 1.71429 14.1429C1.71429 13.8019 1.84975 13.4748 2.09087 13.2337C2.33198 12.9926 2.65901 12.8571 3 12.8571H9.85714C10.1981 12.8571 10.5252 12.9926 10.7663 13.2337C11.0074 13.4748 11.1429 13.8019 11.1429 14.1429V21C11.1429 21.341 11.0074 21.668 10.7663 21.9091C10.5252 22.1503 10.1981 22.2857 9.85714 22.2857Z" fill="black"/>
</svg>
