<svg viewBox="0 0 19 24" xmlns="http://www.w3.org/2000/svg">
<path d="M17 24H2C1.46957 24 0.960859 23.7893 0.585786 23.4142C0.210714 23.0391 0 22.5304 0 22L0 2C0 1.46957 0.210714 0.960859 0.585786 0.585787C0.960859 0.210714 1.46957 0 2 0H11C11.2652 5.72205e-05 11.5195 0.10545 11.707 0.292999L18.707 7.293C18.8946 7.48049 18.9999 7.73481 19 8V22C19 22.5304 18.7893 23.0391 18.4142 23.4142C18.0391 23.7893 17.5304 24 17 24ZM2 21.5C2 21.6326 2.05268 21.7598 2.14645 21.8536C2.24021 21.9473 2.36739 22 2.5 22H16.5C16.6326 22 16.7598 21.9473 16.8536 21.8536C16.9473 21.7598 17 21.6326 17 21.5V9C17 8.86739 16.9473 8.74021 16.8536 8.64645C16.7598 8.55268 16.6326 8.5 16.5 8.5H12.5C11.9696 8.5 11.4609 8.28929 11.0858 7.91421C10.7107 7.53914 10.5 7.03043 10.5 6.5V2.5C10.5 2.36739 10.4473 2.24022 10.3536 2.14645C10.2598 2.05268 10.1326 2 10 2H2.5C2.36739 2 2.24021 2.05268 2.14645 2.14645C2.05268 2.24022 2 2.36739 2 2.5V21.5Z" fill="black"/>
</svg>
