<svg xmlns="http://www.w3.org/2000/svg" viewBox="0 0 24 24"><g transform="matrix(1.7142857142857142,0,0,1.7142857142857142,0,0)"><path d="M7,0A6,6,0,0,0,3.358,10.762a1,1,0,0,1,.392.794V12.5A1.5,1.5,0,0,0,5.25,14a1,1,0,0,0,1-1v-.75a.75.75,0,0,1,1.5,0V13a1,1,0,0,0,1,1,1.5,1.5,0,0,0,1.5-1.5v-.944a1,1,0,0,1,.392-.794A6,6,0,0,0,7,0ZM4.5,7.25A1.25,1.25,0,1,1,5.75,6,1.25,1.25,0,0,1,4.5,7.25Zm5,0A1.25,1.25,0,1,1,10.75,6,1.25,1.25,0,0,1,9.5,7.25Z" fill="#000000" stroke="none" stroke-linecap="round" stroke-linejoin="round" stroke-width="0"></path></g></svg>
