<svg xmlns="http://www.w3.org/2000/svg" viewBox="0 0 24 24"><g transform="matrix(1.7142857142857142,0,0,1.7142857142857142,0,0)"><path d="M13.948,5.316A1.041,1.041,0,0,0,13.1,4.6L9.523,4.06,7.94.848a1.087,1.087,0,0,0-1.88,0L4.439,4.087.9,4.6A1.049,1.049,0,0,0,.317,6.39L2.9,8.934l-.6,3.532a1.048,1.048,0,0,0,1.521,1.105L7.022,11.9l3.167,1.667a1.048,1.048,0,0,0,1.521-1.105l-.59-3.575,2.563-2.5A1.042,1.042,0,0,0,13.948,5.316Z" fill="#000000" stroke="none" stroke-linecap="round" stroke-linejoin="round" stroke-width="0"></path></g></svg>
