<svg xmlns="http://www.w3.org/2000/svg" viewBox="0 0 24 24"><title>pencil-write-alternate</title><path d="M20,11.491a1,1,0,0,0-1,1v8.5a1,1,0,0,1-1,1H3a1,1,0,0,1-1-1v-17a1,1,0,0,1,1-1H13a1,1,0,0,0,0-2H3a3,3,0,0,0-3,3v17a3,3,0,0,0,3,3H18a3,3,0,0,0,3-3v-8.5A1,1,0,0,0,20,11.491Z"/><path d="M18.818,3.051a.516.516,0,0,0-.707,0L10.3,10.865a.5.5,0,0,0-.111.168L8.773,14.568a.5.5,0,0,0,.111.539.519.519,0,0,0,.539.11L12.958,13.8a.5.5,0,0,0,.168-.111L20.94,5.88a.5.5,0,0,0,0-.707Z"/><path d="M23.415.577a2.047,2.047,0,0,0-2.828,0L19.526,1.637a.5.5,0,0,0,0,.707l2.12,2.121a.5.5,0,0,0,.707,0l1.061-1.06a2,2,0,0,0,0-2.828Z"/></svg>