<svg viewBox="0 0 24 24" xmlns="http://www.w3.org/2000/svg">
<path d="M4.5 17.5H11.146C11.3614 18.2222 11.8042 18.8556 12.4085 19.306C13.0128 19.7564 13.7463 19.9997 14.5 19.9997C15.2537 19.9997 15.9872 19.7564 16.5915 19.306C17.1958 18.8556 17.6386 18.2222 17.854 17.5H19.5C19.7652 17.5 20.0196 17.3946 20.2071 17.2071C20.3946 17.0196 20.5 16.7652 20.5 16.5C20.5 16.2348 20.3946 15.9804 20.2071 15.7929C20.0196 15.6054 19.7652 15.5 19.5 15.5H17.854C17.6386 14.7778 17.1958 14.1444 16.5915 13.694C15.9872 13.2436 15.2537 13.0003 14.5 13.0003C13.7463 13.0003 13.0128 13.2436 12.4085 13.694C11.8042 14.1444 11.3614 14.7778 11.146 15.5H4.5C4.23478 15.5 3.98043 15.6054 3.79289 15.7929C3.60536 15.9804 3.5 16.2348 3.5 16.5C3.5 16.7652 3.60536 17.0196 3.79289 17.2071C3.98043 17.3946 4.23478 17.5 4.5 17.5ZM14.5 15C14.7967 15 15.0867 15.088 15.3334 15.2528C15.58 15.4176 15.7723 15.6519 15.8858 15.926C15.9994 16.2001 16.0291 16.5017 15.9712 16.7926C15.9133 17.0836 15.7704 17.3509 15.5607 17.5607C15.3509 17.7704 15.0836 17.9133 14.7926 17.9712C14.5017 18.0291 14.2001 17.9993 13.926 17.8858C13.6519 17.7723 13.4176 17.58 13.2528 17.3334C13.088 17.0867 13 16.7967 13 16.5C13 16.1022 13.158 15.7206 13.4393 15.4393C13.7206 15.158 14.1022 15 14.5 15Z" fill="black"/>
<path d="M19.5 6.5L12.854 6.5C12.6386 5.77777 12.1958 5.14437 11.5915 4.69399C10.9872 4.24362 10.2537 4.00034 9.5 4.00034C8.74633 4.00034 8.0128 4.24362 7.40849 4.69399C6.80419 5.14437 6.36141 5.77777 6.146 6.5H4.5C4.23478 6.5 3.98043 6.60536 3.79289 6.79289C3.60536 6.98043 3.5 7.23479 3.5 7.5C3.5 7.76522 3.60536 8.01957 3.79289 8.20711C3.98043 8.39464 4.23478 8.5 4.5 8.5H6.146C6.36141 9.22223 6.80419 9.85564 7.40849 10.306C8.0128 10.7564 8.74633 10.9997 9.5 10.9997C10.2537 10.9997 10.9872 10.7564 11.5915 10.306C12.1958 9.85564 12.6386 9.22223 12.854 8.5H19.5C19.7652 8.5 20.0196 8.39464 20.2071 8.20711C20.3946 8.01957 20.5 7.76522 20.5 7.5C20.5 7.23479 20.3946 6.98043 20.2071 6.79289C20.0196 6.60536 19.7652 6.5 19.5 6.5ZM9.5 9C9.20333 9 8.91332 8.91203 8.66665 8.74721C8.41997 8.58238 8.22771 8.34812 8.11418 8.07403C8.00065 7.79994 7.97094 7.49834 8.02882 7.20737C8.0867 6.9164 8.22956 6.64912 8.43934 6.43934C8.64912 6.22956 8.91639 6.0867 9.20736 6.02882C9.49834 5.97095 9.79994 6.00065 10.074 6.11418C10.3481 6.22771 10.5824 6.41997 10.7472 6.66665C10.912 6.91332 11 7.20333 11 7.5C11 7.89783 10.842 8.27936 10.5607 8.56066C10.2794 8.84197 9.89782 9 9.5 9Z" fill="black"/>
</svg>
