<svg xmlns="http://www.w3.org/2000/svg" viewBox="0 0 24 24"><title>common-file-double-2</title><path d="M21.941,3.607,18.87.554A1.912,1.912,0,0,0,17.527,0H8.9A1.9,1.9,0,0,0,7,1.9V5H3.4A1.9,1.9,0,0,0,1.5,6.9v15.21A1.9,1.9,0,0,0,3.4,24H15.1A1.9,1.9,0,0,0,17,22.105V19h3.6a1.9,1.9,0,0,0,1.9-1.895V4.949A1.882,1.882,0,0,0,21.941,3.607ZM14.5,22H4a.5.5,0,0,1-.5-.5V7.5A.5.5,0,0,1,4,7h7.784a.5.5,0,0,1,.35.143L14.85,9.8a.5.5,0,0,1,.15.357V21.5A.5.5,0,0,1,14.5,22ZM20,17H17.25a.25.25,0,0,1-.25-.25v-6.8a1.892,1.892,0,0,0-.558-1.341L13.37,5.554A1.9,1.9,0,0,0,12.028,5H9.25A.25.25,0,0,1,9,4.75V2.5A.5.5,0,0,1,9.5,2l7.756-.026a.5.5,0,0,1,.351.143L20.35,4.8a.5.5,0,0,1,.15.357V16.5A.5.5,0,0,1,20,17Z"/></svg>