<svg
  viewBox="0 0 20 20"
  xmlns="http://www.w3.org/2000/svg"
>
  <g clip-path="url(#clip0)">
    <path
      d="M1.85708 7.61205H0.979558C0.448964 7.61205 0 8.04061 0 8.59161V10.816C0 11.265 0.183667 11.6731 0.510186 11.9792C1.12241 12.5302 2.32645 13.469 4.24475 14.3465C4.3876 14.4077 4.51005 14.5506 4.55086 14.6934L5.4896 17.979C5.55083 18.1831 5.73449 18.326 5.95898 18.326H7.42831C7.65279 18.326 7.83646 18.1831 7.89768 17.9586L8.36705 16.1424C8.40787 15.9995 8.55072 15.9179 8.69357 15.9587C9.26498 16.0811 9.87721 16.122 10.4894 16.122C11.1017 16.122 11.7139 16.0607 12.2853 15.9587C12.4281 15.9383 12.571 16.0199 12.6118 16.1424L13.0812 17.9586C13.1424 18.1627 13.3261 18.326 13.5505 18.326H15.0199C15.2444 18.326 15.428 18.1831 15.4893 17.979L16.7137 13.7343C16.7341 13.6527 16.7749 13.571 16.8361 13.5098C17.7545 12.5302 18.3667 11.3466 18.5708 10.0405H19.0606C19.5912 10.0405 20.0197 9.59157 19.9993 9.06098C19.9789 8.55079 19.5299 8.14264 19.0197 8.14264H18.5708C18.0606 4.67338 14.6321 2 10.4894 2C8.71398 2 7.06098 2.48978 5.73449 3.32648C5.14268 2.91834 4.26516 2.59182 3.04071 2.69385C2.55093 2.73467 2.32645 3.30608 2.65297 3.653C3.06112 4.08156 3.44886 4.65297 3.53049 5.38764L1.85708 7.61205ZM4.97942 8.59161C4.51005 8.59161 4.12231 8.20386 4.12231 7.73449C4.12231 7.26512 4.51005 6.87738 4.97942 6.87738C5.44879 6.87738 5.83653 7.26512 5.83653 7.73449C5.83653 8.20386 5.44879 8.59161 4.97942 8.59161Z"
      fill="white"
    />
  </g>
  <defs>
    <clipPath id="clip0">
      <rect width="20" height="20" fill="white" />
    </clipPath>
  </defs>
</svg>
